<svg width="51" height="27" viewBox="0 0 51 27" fill="none" xmlns="http://www.w3.org/2000/svg">
<g clip-path="url(#clip0_0_775)">
<rect width="51" height="27" rx="6" fill="#FFEEE2"/>
<path d="M8.78125 18.0938L10.0078 16.3594C10.3672 16.6146 10.7266 16.8307 11.0859 17.0078C11.4453 17.1797 11.8672 17.2656 12.3516 17.2656C12.987 17.2656 13.4792 17.0677 13.8281 16.6719C14.1771 16.2708 14.3516 15.8073 14.3516 15.2812C14.3516 14.7292 14.1641 14.2604 13.7891 13.875C13.4193 13.4844 12.8984 13.2891 12.2266 13.2891C11.7682 13.2891 11.3724 13.388 11.0391 13.5859L10.6484 13.8125L9.46875 12.4531L10.0234 7.25781H16.2031V9.36719H11.9141L11.6953 11.4062C11.9714 11.3594 12.2474 11.3359 12.5234 11.3359C13.3151 11.3359 14.0312 11.5026 14.6719 11.8359C15.3177 12.1641 15.8281 12.625 16.2031 13.2188C16.5833 13.8073 16.7734 14.4974 16.7734 15.2891C16.7734 16.0964 16.5755 16.7943 16.1797 17.3828C15.7839 17.9714 15.25 18.4245 14.5781 18.7422C13.9115 19.0599 13.1693 19.2188 12.3516 19.2188C11.7005 19.2188 11.0859 19.1198 10.5078 18.9219C9.92969 18.7188 9.35417 18.4427 8.78125 18.0938ZM18.1094 13.1406C18.1094 11.8906 18.2682 10.8099 18.5859 9.89844C18.9089 8.98698 19.3854 8.28385 20.0156 7.78906C20.6458 7.29427 21.4219 7.04688 22.3438 7.04688C23.2708 7.04688 24.0469 7.29427 24.6719 7.78906C25.3021 8.28385 25.776 8.98698 26.0938 9.89844C26.4167 10.8099 26.5781 11.8906 26.5781 13.1406C26.5781 14.3906 26.4167 15.4714 26.0938 16.3828C25.776 17.2943 25.3021 17.9974 24.6719 18.4922C24.0469 18.987 23.2708 19.2344 22.3438 19.2344C21.4219 19.2344 20.6458 18.987 20.0156 18.4922C19.3854 17.9974 18.9089 17.2943 18.5859 16.3828C18.2682 15.4714 18.1094 14.3906 18.1094 13.1406ZM20.5 13.1406C20.5 14.3646 20.6562 15.3359 20.9688 16.0547C21.2812 16.7682 21.7396 17.125 22.3438 17.125C22.9479 17.125 23.4062 16.7682 23.7188 16.0547C24.0312 15.3359 24.1875 14.3646 24.1875 13.1406C24.1875 11.9115 24.0312 10.9401 23.7188 10.2266C23.4062 9.51302 22.9479 9.15625 22.3438 9.15625C21.7396 9.15625 21.2812 9.51302 20.9688 10.2266C20.6562 10.9401 20.5 11.9115 20.5 13.1406ZM31.1172 7.20312C31.6693 7.20312 32.1354 7.29167 32.5156 7.46875C32.8958 7.64062 33.2031 7.86719 33.4375 8.14844C33.6719 8.42448 33.8411 8.72656 33.9453 9.05469C34.0495 9.3776 34.1016 9.69271 34.1016 10C34.1016 10.3021 34.0495 10.6172 33.9453 10.9453C33.8411 11.2734 33.6719 11.5781 33.4375 11.8594C33.2031 12.1354 32.8958 12.362 32.5156 12.5391C32.1354 12.7109 31.6693 12.7969 31.1172 12.7969C30.3828 12.7969 29.7969 12.6484 29.3594 12.3516C28.9271 12.0547 28.6146 11.6901 28.4219 11.2578C28.2344 10.8255 28.1406 10.4062 28.1406 10C28.1406 9.59375 28.2344 9.17448 28.4219 8.74219C28.6146 8.3099 28.9271 7.94531 29.3594 7.64844C29.7969 7.35156 30.3828 7.20312 31.1172 7.20312ZM37.4531 7.26562H39.5859L32.1094 19.0078H29.9844L37.4531 7.26562ZM31.1172 11.1562C31.4245 11.1562 31.6641 11.0443 31.8359 10.8203C32.0078 10.5964 32.0938 10.3229 32.0938 10C32.0938 9.67708 32.0078 9.40365 31.8359 9.17969C31.6641 8.95573 31.4245 8.84375 31.1172 8.84375C30.8151 8.84375 30.5781 8.95573 30.4062 9.17969C30.2344 9.40365 30.1484 9.67708 30.1484 10C30.1484 10.3229 30.2344 10.5964 30.4062 10.8203C30.5781 11.0443 30.8151 11.1562 31.1172 11.1562ZM38.4375 13.4844C38.9896 13.4844 39.4557 13.5729 39.8359 13.75C40.2161 13.9219 40.5234 14.1484 40.7578 14.4297C40.9922 14.7109 41.1615 15.0156 41.2656 15.3438C41.3698 15.6667 41.4219 15.9792 41.4219 16.2812C41.4219 16.6875 41.3255 17.1068 41.1328 17.5391C40.9401 17.9714 40.625 18.3359 40.1875 18.6328C39.7552 18.9297 39.1719 19.0781 38.4375 19.0781C37.7031 19.0781 37.1172 18.9297 36.6797 18.6328C36.2474 18.3359 35.9349 17.9714 35.7422 17.5391C35.5547 17.1068 35.4609 16.6875 35.4609 16.2812C35.4609 15.9792 35.513 15.6667 35.6172 15.3438C35.7214 15.0156 35.888 14.7109 36.1172 14.4297C36.3516 14.1484 36.6589 13.9219 37.0391 13.75C37.4193 13.5729 37.8854 13.4844 38.4375 13.4844ZM38.4375 17.4375C38.7448 17.4375 38.9844 17.3281 39.1562 17.1094C39.3281 16.8854 39.4141 16.612 39.4141 16.2891C39.4141 15.9609 39.3281 15.6849 39.1562 15.4609C38.9844 15.237 38.7448 15.125 38.4375 15.125C38.1302 15.125 37.8906 15.237 37.7188 15.4609C37.5521 15.6849 37.4688 15.9609 37.4688 16.2891C37.4688 16.612 37.5521 16.8854 37.7188 17.1094C37.8906 17.3281 38.1302 17.4375 38.4375 17.4375Z" fill="#FF7E1B"/>
</g>
<defs>
<clipPath id="clip0_0_775">
<rect width="51" height="27" fill="white"/>
</clipPath>
</defs>
</svg>
